# xmcd CD database file
#
# Track frame offsets:
#	150
#	19560
#	44325
#	69600
#	105075
#	134063
#	162113
#	194325
#	215700
#	246225
#	272438
#	294825
#
# Disc length: 4281 seconds
#
# Revision: 0
# Processed by: cddbd v1.5.2PL0 Copyright (c) Steve Scherf et al.
# Submitted via: CDex 1.70beta2
#
DISCID=a910b70c
DTITLE=小林香織 - SEVENth - VICJ-61661
DYEAR=2012
DGENRE=Jazz
TTITLE0=England Funk
TTITLE1=October 20th
TTITLE2=個性派モチーフ
TTITLE3=Nocturne
TTITLE4=Bar Wave
TTITLE5=The Awakening of Love
TTITLE6=Driver's Meeting (feat. Asano Sho)
TTITLE7=ONE!
TTITLE8=Europe
TTITLE9=LAST GAME
TTITLE10=新不了情 〜つきせぬ想い
TTITLE11=It's the Star Connection
EXTD=YEAR: 2012
EXTT0=
EXTT1=
EXTT2=
EXTT3=
EXTT4=
EXTT5=
EXTT6=
EXTT7=
EXTT8=
EXTT9=
EXTT10=
EXTT11=
PLAYORDER=
